<svg width="26" height="27" viewBox="0 0 26 27" fill="none" xmlns="http://www.w3.org/2000/svg">
<path d="M25.0089 6.54395L16.3345 1.20586C16.1882 1.11582 16.115 1.0708 16.0627 1.10275C16.0104 1.1347 16.017 1.22034 16.0302 1.39162L16.4409 6.69886C16.4415 6.70657 16.4418 6.71042 16.4418 6.71429C16.4418 6.71815 16.4415 6.722 16.4409 6.72972L16.0302 12.0369C16.017 12.2082 16.0104 12.2939 16.0627 12.3258C16.115 12.3578 16.1882 12.3127 16.3345 12.2227L25.0089 6.88462C25.1329 6.80832 25.1948 6.77017 25.1948 6.71429C25.1948 6.65841 25.1329 6.62026 25.0089 6.54395Z" fill="#0C58A2" stroke="#0C58A2" stroke-linecap="round"/>
<path d="M2.07132 4.57154C3.34195 3.93617 13.6532 4.43102 15.9182 4.54823C16.2022 4.56293 16.4586 4.69843 16.6362 4.92048L17.2858 5.73243C17.578 6.09765 17.578 6.61663 17.2858 6.98187L16.6892 7.72761C16.4815 7.98723 16.1637 8.12708 15.8322 8.10146C13.7591 7.94125 6.20876 7.39009 5.28564 7.78571C3.57507 8.51881 4.21421 11.5358 2.07132 12.0715C0.99995 12.3394 0.716119 5.2492 2.07132 4.57154Z" fill="#0C58A2"/>
<path d="M1.27678 20.456L9.95161 25.7941C10.0979 25.8842 10.1711 25.9292 10.2234 25.8973C10.2757 25.8653 10.2691 25.7797 10.2558 25.6084L9.84513 20.3011C9.84453 20.2934 9.84423 20.2896 9.84423 20.2857C9.84423 20.2819 9.84453 20.278 9.84513 20.2703L10.2558 14.963C10.2691 14.7918 10.2757 14.7061 10.2234 14.6742C10.1711 14.6422 10.0979 14.6872 9.95161 14.7773L1.27678 20.1154C1.15278 20.1917 1.09079 20.2298 1.09079 20.2857C1.09079 20.3416 1.15278 20.3797 1.27678 20.456Z" fill="#0C58A2" stroke="#0C58A2" stroke-linecap="round"/>
<path d="M24.2155 22.4285C22.9448 23.0639 12.6329 22.569 10.3679 22.4518C10.0839 22.4371 9.82758 22.3016 9.64993 22.0796L9.00028 21.2676C8.70805 20.9024 8.70804 20.3834 9.00026 20.0182L9.5969 19.2724C9.8046 19.0128 10.1225 18.873 10.4539 18.8986C12.5271 19.0588 20.0779 19.61 21.001 19.2143C22.7117 18.4812 22.0725 15.4642 24.2155 14.9285C25.2869 14.6607 25.5708 21.7509 24.2155 22.4285Z" fill="#0C58A2"/>
</svg>
