<svg width="25" height="25" viewBox="0 0 25 25" fill="none" xmlns="http://www.w3.org/2000/svg">
<g clip-path="url(#clip0_388_962)">
<path fill-rule="evenodd" clip-rule="evenodd" d="M1.64921 4.56348C0.820924 3.73519 0.80174 2.41145 1.60637 1.60682C2.41099 0.802196 3.73473 0.821382 4.56302 1.64967L12.5329 9.61958L20.5033 1.64924C21.3316 0.820948 22.6553 0.801764 23.4599 1.60639C24.2646 2.41102 24.2454 3.73475 23.4171 4.56305L15.4467 12.5334L23.4171 20.5037C24.2454 21.332 24.2645 22.6558 23.4599 23.4604C22.6553 24.265 21.3316 24.2458 20.5033 23.4175L12.5329 15.4472L4.56303 23.4171C3.73474 24.2454 2.411 24.2646 1.60638 23.4599C0.801751 22.6553 0.820933 21.3316 1.64922 20.5033L9.61912 12.5334L1.64921 4.56348Z" fill="#0C58A2"/>
</g>
<defs>
<clipPath id="clip0_388_962">
<rect width="25" height="25" fill="white"/>
</clipPath>
</defs>
</svg>
