<svg width="25" height="25" viewBox="0 0 25 25" fill="none" xmlns="http://www.w3.org/2000/svg">
<path fill-rule="evenodd" clip-rule="evenodd" d="M12.5 0C12.9315 0 13.2812 0.349778 13.2812 0.78125V1.58997C18.6992 1.97234 23.0277 6.3008 23.41 11.7188H24.2188C24.6502 11.7188 25 12.0685 25 12.5C25 12.9315 24.6502 13.2812 24.2188 13.2812H23.41C23.0277 18.6992 18.6992 23.0277 13.2812 23.41V24.2188C13.2812 24.6502 12.9315 25 12.5 25C12.0685 25 11.7188 24.6502 11.7188 24.2188V23.41C6.3008 23.0277 1.97234 18.6992 1.58997 13.2812H0.78125C0.349778 13.2812 0 12.9315 0 12.5C0 12.0685 0.349778 11.7188 0.78125 11.7188H1.58997C1.97234 6.3008 6.3008 1.97234 11.7188 1.58997V0.78125C11.7188 0.349778 12.0685 0 12.5 0ZM11.7188 3.15709C7.16422 3.53283 3.53283 7.16422 3.15709 11.7188H3.90625C4.14753 11.7188 4.36326 11.8281 4.50657 12H4.70324C4.95061 8.08359 8.08359 4.95061 12 4.70324V4.50657C11.8281 4.36326 11.7188 4.14753 11.7188 3.90625V3.15709ZM13 4.70324C16.9164 4.95061 20.0494 8.08359 20.2968 12H20.4934C20.6367 11.8281 20.8525 11.7188 21.0938 11.7188H21.8429C21.4672 7.16422 17.8358 3.53283 13.2812 3.15709V3.90625C13.2812 4.14753 13.1719 4.36326 13 4.50657V4.70324ZM20.2968 13C20.0494 16.9164 16.9164 20.0494 13 20.2968V20.4934C13.1719 20.6367 13.2812 20.8525 13.2812 21.0938V21.8429C17.8358 21.4672 21.4672 17.8358 21.8429 13.2812H21.0938C20.8525 13.2812 20.6367 13.1719 20.4934 13H20.2968ZM12 20.2968C8.08359 20.0494 4.95061 16.9164 4.70324 13H4.50657C4.36326 13.1719 4.14753 13.2812 3.90625 13.2812H3.15709C3.53283 17.8358 7.16422 21.4672 11.7188 21.8429V21.0938C11.7188 20.8525 11.8281 20.6367 12 20.4934V20.2968ZM15.625 12.5C15.625 14.2259 14.2259 15.625 12.5 15.625C10.7741 15.625 9.375 14.2259 9.375 12.5C9.375 10.7741 10.7741 9.375 12.5 9.375C14.2259 9.375 15.625 10.7741 15.625 12.5Z" fill="#0C58A2"/>
<path d="M12.5 0C12.9315 0 13.2812 0.349778 13.2812 0.78125V1.58997C18.6992 1.97234 23.0277 6.3008 23.41 11.7188H24.2188C24.6502 11.7188 25 12.0685 25 12.5C25 12.9315 24.6502 13.2812 24.2188 13.2812H23.41C23.0277 18.6992 18.6992 23.0277 13.2812 23.41V24.2188C13.2812 24.6502 12.9315 25 12.5 25C12.0685 25 11.7188 24.6502 11.7188 24.2188V23.41C6.3008 23.0277 1.97234 18.6992 1.58997 13.2812H0.78125C0.349778 13.2812 0 12.9315 0 12.5C0 12.0685 0.349778 11.7188 0.78125 11.7188H1.58997C1.97234 6.3008 6.3008 1.97234 11.7188 1.58997V0.78125C11.7188 0.349778 12.0685 0 12.5 0ZM11.7188 3.15709C7.16422 3.53283 3.53283 7.16422 3.15709 11.7188H4.72607C5.09253 8.0278 8.0278 5.09253 11.7188 4.72607V3.15709ZM13.2812 4.72607C16.9722 5.09253 19.9075 8.0278 20.2739 11.7188H21.8429C21.4672 7.16422 17.8358 3.53283 13.2812 3.15709V4.72607ZM20.2739 13.2812C19.9075 16.9722 16.9722 19.9075 13.2812 20.2739V21.8429C17.8358 21.4672 21.4672 17.8358 21.8429 13.2812H20.2739ZM11.7188 20.2739C8.0278 19.9075 5.09253 16.9722 4.72607 13.2812H3.15709C3.53283 17.8358 7.16422 21.4672 11.7188 21.8429V20.2739ZM15.625 12.5C15.625 10.7741 14.2259 9.375 12.5 9.375C10.7741 9.375 9.375 10.7741 9.375 12.5C9.375 14.2259 10.7741 15.625 12.5 15.625C14.2259 15.625 15.625 14.2259 15.625 12.5Z" fill="#0C58A2"/>
</svg>
