<svg width="19" height="25" viewBox="0 0 19 25" fill="none" xmlns="http://www.w3.org/2000/svg">
<path fill-rule="evenodd" clip-rule="evenodd" d="M9.10639 13.6596C11.8145 13.6596 14.0098 11.4643 14.0098 8.75615C14.0098 6.04805 11.8145 3.85271 9.10639 3.85271C6.39829 3.85271 4.20294 6.04805 4.20294 8.75615C4.20294 11.4643 6.39829 13.6596 9.10639 13.6596ZM9.1064 11.5581C10.6539 11.5581 11.9084 10.3036 11.9084 8.75616C11.9084 7.20867 10.6539 5.95419 9.1064 5.95419C7.55892 5.95419 6.30443 7.20867 6.30443 8.75616C6.30443 10.3036 7.55892 11.5581 9.1064 11.5581Z" fill="#0C58A2"/>
<path fill-rule="evenodd" clip-rule="evenodd" d="M9.02436 25C6.55568 25 0 13.8804 0 8.97436C0 4.06828 4.00124 0 9.02436 0C14.0475 0 18.2128 4.06828 18.2128 8.97436C18.2128 13.8804 11.493 25 9.02436 25ZM9.11239 22.6154C7.61133 22.6154 2.2766 12.8747 2.2766 8.75616C2.2766 4.63758 5.05561 2.0245 9.13689 2.0245C13.2182 2.0245 15.9362 4.63758 15.9362 8.75616C15.9362 12.8747 10.6134 22.6154 9.11239 22.6154Z" fill="#0C58A2"/>
</svg>
