<svg width="24" height="25" viewBox="0 0 24 25" fill="none" xmlns="http://www.w3.org/2000/svg">
<path d="M23.022 9.96231H19.5771C19.5771 9.96231 19.5729 8.61915 19.5729 7.77414C19.5729 7.579 19.5493 7.45192 19.4548 7.45192C19.3604 7.45192 19.136 7.64372 19.077 7.68207C19.018 7.72043 16.3969 9.39451 14.6875 10.5033C14.5572 10.5877 14.4249 10.6736 14.4249 10.7201C14.4249 10.7658 14.5524 10.8484 14.6802 10.9313L14.6875 10.936C16.4606 12.0859 17.3545 12.667 19.2437 13.8571C19.2939 13.8887 19.3604 13.9423 19.4548 13.9423C19.5493 13.9423 19.5771 13.8097 19.5771 13.6407V11.477H23.022C23.4517 11.477 23.7999 11.1379 23.7999 10.7196C23.7999 10.3014 23.4517 9.96231 23.022 9.96231Z" fill="#0C58A2"/>
<path d="M0.722961 0.961533L7.37928 2.04093C9.31598 2.35499 10.739 4.02736 10.739 5.98936V19.4503C10.739 22.1805 8.06421 24.1084 5.47409 23.245L0.722961 21.6613V0.961533Z" fill="#0C58A2"/>
<path d="M16.348 6.85096C16.348 7.31562 15.9713 7.69231 15.5066 7.69231C15.042 7.69231 14.6653 7.31562 14.6653 6.85096V1.68269H1.68453V19.9519H14.6653V15.024C14.6653 14.5594 15.042 14.1827 15.5066 14.1827C15.9713 14.1827 16.348 14.5594 16.348 15.024V19.9519C16.348 20.6091 16.1552 20.986 15.8672 21.274C15.5792 21.562 15.3224 21.6346 14.6653 21.6346H1.68453C1.02739 21.6346 0.772039 21.6837 0.362395 21.274C-0.0472501 20.8644 0.00183435 20.6091 0.00183435 19.9519V1.68269C0.00183435 1.1263 0.242208 0.721154 0.482589 0.480769C0.789828 0.173524 1.08355 0 1.68453 0H14.6653C15.3224 0 15.5489 0.162431 15.8672 0.480769C16.1855 0.799108 16.348 1.02556 16.348 1.68269V6.85096Z" fill="#0C58A2"/>
</svg>
