<svg width="23" height="25" viewBox="0 0 23 25" fill="none" xmlns="http://www.w3.org/2000/svg">
<path d="M16.5808 10.5102H19.1531C19.1531 10.5102 19.1562 9.16716 19.1562 8.3222C19.1562 8.12707 19.1738 8 19.2443 8C19.3149 8 19.4824 8.19179 19.5264 8.23014C19.5705 8.26849 21.5276 9.94247 22.804 11.0512C22.9012 11.1356 23 11.2215 23 11.268C23 11.3137 22.9048 11.3963 22.8094 11.4792L22.804 11.4839C21.48 12.6337 20.8126 13.2148 19.402 14.4048C19.3645 14.4364 19.3149 14.49 19.2443 14.49C19.1738 14.49 19.1531 14.3574 19.1531 14.1885V12.0248H16.5808C16.26 12.0248 16 11.6858 16 11.2675C16 10.8493 16.26 10.5102 16.5808 10.5102Z" fill="#0C58A2"/>
<path d="M0.722961 0.961533L7.37928 2.04093C9.31598 2.35499 10.739 4.02736 10.739 5.98936V19.4503C10.739 22.1805 8.06421 24.1084 5.47409 23.245L0.722961 21.6613V0.961533Z" fill="#0C58A2"/>
<path d="M16.348 6.85096C16.348 7.31562 15.9713 7.69231 15.5066 7.69231C15.042 7.69231 14.6653 7.31562 14.6653 6.85096V1.68269H1.68453V19.9519H14.6653V15.024C14.6653 14.5594 15.042 14.1827 15.5066 14.1827C15.9713 14.1827 16.348 14.5594 16.348 15.024V19.9519C16.348 20.6091 16.1552 20.986 15.8672 21.274C15.5792 21.562 15.3224 21.6346 14.6653 21.6346H1.68453C1.02739 21.6346 0.772039 21.6837 0.362395 21.274C-0.0472501 20.8644 0.00183435 20.6091 0.00183435 19.9519V1.68269C0.00183435 1.1263 0.242208 0.721154 0.482589 0.480769C0.789828 0.173524 1.08355 0 1.68453 0H14.6653C15.3224 0 15.5489 0.162431 15.8672 0.480769C16.1855 0.799108 16.348 1.02556 16.348 1.68269V6.85096Z" fill="#0C58A2"/>
</svg>
