<svg width="211" height="40" viewBox="0 0 211 40" fill="none" xmlns="http://www.w3.org/2000/svg">
<path fill-rule="evenodd" clip-rule="evenodd" d="M79.3586 38.7698C79.0507 38.9237 70.1464 39.0775 69.6599 38.7698C69.5535 38.7025 69.1348 38.0207 68.6005 37.1507L68.6 37.1499L68.5999 37.1498C67.5877 35.5014 66.1609 33.1781 65.6572 33.0774C65.2619 32.9984 62.0072 32.9963 58.9431 32.9942H58.9429H58.9427H58.9425H58.9424C56.0395 32.9923 53.3078 32.9905 53.3413 32.9236C53.4953 32.6159 57.8529 25.823 59.0374 25.2311C59.1737 25.163 59.7324 25.2057 60.3395 25.2521C61.1038 25.3105 61.9448 25.3747 62.1164 25.2311C62.5782 24.8447 61.9429 22.5603 61.1927 21.0772C60.4807 19.6698 59.9871 18.7056 58.5756 18.0003C58.2677 17.8464 57.306 17.8955 57.0361 18.4618C55.4966 21.6926 52.191 28.462 51.1861 30.0004C50.7098 30.7296 50.307 31.2266 49.9082 31.7186C49.3603 32.3948 48.82 33.0615 48.1071 34.3082C47.2427 35.8199 46.7575 37.1042 46.4385 37.9485L46.4385 37.9485C46.303 38.3071 46.1976 38.5863 46.1058 38.7698C46.0084 38.9644 36.7149 38.9237 36.561 38.7698C36.5117 38.7206 36.8985 38.0381 37.4307 37.099C38.0744 35.9631 38.9308 34.4518 39.486 33.2313C39.8097 32.5196 40.5689 31.2639 41.5119 29.7043L41.5119 29.7042L41.5119 29.7042C42.8114 27.555 44.4597 24.8287 45.7979 22.1542C46.3883 20.9741 46.858 20.0052 47.2764 19.142L47.2767 19.1414L47.2773 19.14L47.2775 19.1397L47.2777 19.1392C48.4948 16.6283 49.2782 15.0121 51.34 11.6925C52.5073 9.81314 53.893 7.44246 55.1291 5.32781L55.1292 5.32768C56.8276 2.42215 58.2434 2.17416e-05 58.4216 3.43325e-10C58.8826 -5.62344e-05 62.5427 6.9081 66.1569 13.7294L66.1586 13.7327L66.1598 13.735L66.1616 13.7383C67.3739 16.0263 68.5808 18.3042 69.6599 20.308C70.4716 21.8152 71.3842 23.4978 72.3165 25.2167C75.8197 31.6754 79.6018 38.6483 79.3586 38.7698ZM11.1596 1.23021C10.8517 0.99927 1.15295 0.76909 0.0753038 1.23021C-0.844928 1.62397 6.8595 13.4392 12.7694 22.5025C15.7577 27.0852 18.2872 30.9643 19.011 32.3076C20.0957 34.3208 20.9855 36.2562 21.641 37.6821C22.2879 39.0892 22.7067 40.0001 22.8597 40C23.0122 39.9999 25.8874 34.7497 29.1985 28.7036L29.1987 28.7034C32.57 22.5472 36.3933 15.5658 38.2545 12.4611C39.1357 10.9912 40.4376 8.9605 41.6759 7.02905L41.6761 7.02869C43.5482 4.10861 45.2748 1.41549 45.1822 1.23021C45.0021 0.870156 34.9532 0.935144 34.5597 1.23021C34.2042 1.49688 31.3334 6.99564 28.7928 11.8618L28.7927 11.8621L28.7926 11.8622C26.9335 15.4232 25.2513 18.6454 24.861 19.2305C24.7092 19.458 24.5709 19.6661 24.4445 19.8564L24.4445 19.8564C23.2882 21.5963 23.122 21.8463 22.7057 21.8459C22.5471 21.8457 19.611 16.4679 16.7377 11.2051C14.0328 6.25066 11.3835 1.39819 11.1596 1.23021ZM107.377 1.38475C107.008 0.923526 82.1297 0.922972 81.668 1.38436C81.2063 1.84577 81.2063 38.4499 81.6681 38.7699C82.1298 39.0899 106.916 39.0776 107.377 38.7694C107.915 38.4108 107.839 30.9236 107.377 30.4616C107.123 30.2073 102.018 30.3263 97.4279 30.4333H97.4278C93.6789 30.5207 90.2736 30.6001 90.1352 30.4616C89.6491 29.975 89.8273 24.6159 90.1352 24.3077C90.2741 24.1687 92.9807 24.2488 95.9389 24.3364H95.939C99.5399 24.4431 103.514 24.5608 103.683 24.3077C103.991 23.8466 104.269 16.7701 103.991 16.4619C103.851 16.3075 100.329 16.3462 96.8326 16.3846C93.3507 16.4228 89.8939 16.4608 89.8273 16.3075C89.6939 16.0003 89.5194 10.7695 89.8273 10.1536C90.0193 9.76959 97.5099 9.9586 102.642 10.0881C105.3 10.1552 107.325 10.2063 107.377 10.1536C107.721 9.80942 107.839 1.96135 107.377 1.38475ZM113.689 1.53833C114.151 1.23068 127.699 1.38442 129.392 1.69209C131.085 1.99977 144.325 4.76907 144.325 20.4616C144.325 35.5319 131.121 38.2578 129.528 38.5866C129.462 38.6002 129.416 38.6096 129.392 38.6157C128.776 38.7696 113.979 39.1961 113.689 38.6158C113.535 38.3081 113.381 1.74346 113.689 1.53833ZM122.235 10.2462C122.438 10.0772 128.394 10.1617 129.139 10.3306C129.883 10.4996 135.704 12.0204 135.704 20.638C135.704 28.9139 129.899 30.4108 129.198 30.5914L129.163 30.6006C129.152 30.6034 129.144 30.6057 129.139 30.6074C128.868 30.6919 122.362 30.9261 122.235 30.6075C122.167 30.4385 122.099 10.3588 122.235 10.2462ZM165.108 38.9173C175.73 38.3081 183.582 30.6078 183.582 20.1568C183.582 9.70568 176.117 1.69214 166.34 1.69214C156.562 1.69214 148.328 9.70288 148.328 20.154C148.328 30.6051 156.025 38.1542 165.108 38.9173ZM165.108 10.154C170.737 9.61594 175.73 16.0003 175.423 20.308C175.115 24.6156 171.46 30.1543 166.186 30.1543C159.566 30.1543 156.99 25.9836 156.641 20.7695C156.188 14.0002 159.827 10.6588 165.108 10.154ZM166.493 16.1539C164.11 16.0289 161.567 17.5385 161.567 20.0001C161.567 22.4617 163.261 24.3079 166.186 24.3079C169.111 24.3079 170.958 22.3808 170.958 20.0001C170.958 17.8463 168.744 16.272 166.493 16.1539ZM209.868 10.9672C209.356 11.1137 183.093 11.1145 182.836 10.9672C182.7 10.8888 182.599 10.5516 182.458 10.0764C182.335 9.65919 182.179 9.13558 181.94 8.5872C181.856 8.39567 181.763 8.18914 181.67 7.98156L181.67 7.98048L181.669 7.98031C181.359 7.28936 181.043 6.58708 181.043 6.38775C181.043 6.12841 208.893 6.01545 209.484 6.42167C210.124 6.86149 210.765 7.74127 210.893 8.76768C211.001 9.63862 210.568 10.767 209.868 10.9672ZM182.891 29.6089C183.137 29.4604 207.573 29.5722 208.064 29.72C208.735 29.9219 209.15 31.06 209.046 31.9385C208.923 32.9738 208.31 33.8611 207.696 34.3047C207.167 34.6867 183.5 34.2602 180.2 34.2008C179.96 34.1965 179.828 34.1941 179.82 34.1941C179.764 34.1941 180.006 33.9259 180.345 33.5499C180.761 33.0889 181.322 32.4658 181.663 31.9755C181.931 31.5884 182.181 31.0214 182.394 30.538C182.599 30.0709 182.77 29.6819 182.891 29.6089Z" fill="url(#paint0_linear_245_560)"/>
<defs>
<linearGradient id="paint0_linear_245_560" x1="110.336" y1="1.18412e-05" x2="110.208" y2="40.0002" gradientUnits="userSpaceOnUse">
<stop stop-color="#55AE68"/>
<stop offset="1" stop-color="#1A772E"/>
</linearGradient>
</defs>
</svg>
