<svg width="27" height="27" viewBox="0 0 27 27" fill="none" xmlns="http://www.w3.org/2000/svg">
<path d="M13.5 24.4375C7.45939 24.4375 2.5625 19.5406 2.5625 13.5C2.5625 7.45939 7.45939 2.5625 13.5 2.5625C19.5406 2.5625 24.4375 7.45939 24.4375 13.5C24.4375 19.5406 19.5406 24.4375 13.5 24.4375ZM13.5 26C20.4036 26 26 20.4036 26 13.5C26 6.59644 20.4036 1 13.5 1C6.59644 1 1 6.59644 1 13.5C1 20.4036 6.59644 26 13.5 26Z" fill="#0C58A2"/>
<path d="M7.25 13.5C7.25 13.0685 7.59978 12.7188 8.03125 12.7188H18.9688C19.4002 12.7188 19.75 13.0685 19.75 13.5C19.75 13.9315 19.4002 14.2812 18.9688 14.2812H8.03125C7.59978 14.2812 7.25 13.9315 7.25 13.5Z" fill="#0C58A2"/>
<path d="M23.4375 13.5C23.4375 18.9883 18.9883 23.4375 13.5 23.4375V25.4375C20.0929 25.4375 25.4375 20.0929 25.4375 13.5H23.4375ZM13.5 3.5625C18.9883 3.5625 23.4375 8.01167 23.4375 13.5H25.4375C25.4375 6.9071 20.0929 1.5625 13.5 1.5625V3.5625ZM3.5625 13.5C3.5625 8.01167 8.01167 3.5625 13.5 3.5625V1.5625C6.9071 1.5625 1.5625 6.9071 1.5625 13.5H3.5625ZM13.5 23.4375C8.01167 23.4375 3.5625 18.9883 3.5625 13.5H1.5625C1.5625 20.0929 6.9071 25.4375 13.5 25.4375V23.4375ZM25 13.5C25 19.8513 19.8513 25 13.5 25V27C20.9558 27 27 20.9558 27 13.5H25ZM13.5 2C19.8513 2 25 7.14873 25 13.5H27C27 6.04416 20.9558 0 13.5 0V2ZM2 13.5C2 7.14873 7.14873 2 13.5 2V0C6.04416 0 0 6.04416 0 13.5H2ZM13.5 25C7.14873 25 2 19.8513 2 13.5H0C0 20.9558 6.04416 27 13.5 27V25ZM8.03125 11.7188C7.04749 11.7188 6.25 12.5162 6.25 13.5H8.25C8.25 13.6208 8.15206 13.7188 8.03125 13.7188V11.7188ZM18.9688 11.7188H8.03125V13.7188H18.9688V11.7188ZM20.75 13.5C20.75 12.5162 19.9525 11.7188 18.9688 11.7188V13.7188C18.8479 13.7188 18.75 13.6208 18.75 13.5H20.75ZM18.9688 15.2812C19.9525 15.2812 20.75 14.4838 20.75 13.5H18.75C18.75 13.3792 18.8479 13.2812 18.9688 13.2812V15.2812ZM8.03125 15.2812H18.9688V13.2812H8.03125V15.2812ZM6.25 13.5C6.25 14.4838 7.04749 15.2812 8.03125 15.2812V13.2812C8.15206 13.2812 8.25 13.3792 8.25 13.5H6.25Z" fill="#0C58A2"/>
</svg>
