<svg width="25" height="25" viewBox="0 0 25 25" fill="none" xmlns="http://www.w3.org/2000/svg">
<path d="M11.6875 14.1875L17.875 8L16.0937 6.21875L11.6875 10.625L9.9375 8.875L8.15625 10.6562L11.6875 14.1875ZM13 21.6875C15.5417 19.3542 17.4271 17.2344 18.6562 15.3281C19.8854 13.4219 20.5 11.7292 20.5 10.25C20.5 7.97917 19.776 6.11979 18.3281 4.67188C16.8802 3.22396 15.1042 2.5 13 2.5C10.8958 2.5 9.11979 3.22396 7.67187 4.67188C6.22396 6.11979 5.5 7.97917 5.5 10.25C5.5 11.7292 6.11458 13.4219 7.34375 15.3281C8.57292 17.2344 10.4583 19.3542 13 21.6875ZM13 25C9.64583 22.1458 7.14062 19.4948 5.48437 17.0469C3.82812 14.599 3 12.3333 3 10.25C3 7.125 4.00521 4.63542 6.01562 2.78125C8.02604 0.927083 10.3542 0 13 0C15.6458 0 17.974 0.927083 19.9844 2.78125C21.9948 4.63542 23 7.125 23 10.25C23 12.3333 22.1719 14.599 20.5156 17.0469C18.8594 19.4948 16.3542 22.1458 13 25Z" fill="#0C58A2"/>
</svg>
