<svg width="25" height="25" viewBox="0 0 25 25" fill="none" xmlns="http://www.w3.org/2000/svg">
<path fill-rule="evenodd" clip-rule="evenodd" d="M12.5 25C19.4036 25 25 19.4036 25 12.5C25 5.59644 19.4036 0 12.5 0C5.59644 0 0 5.59644 0 12.5C0 19.4036 5.59644 25 12.5 25ZM3.55567 12.4998C3.55567 11.3953 4.4511 10.4998 5.55567 10.4998H10.5003V5.55496C10.5003 4.45039 11.3957 3.55496 12.5003 3.55496C13.6049 3.55496 14.5003 4.45039 14.5003 5.55496V10.4998H19.4446C20.5491 10.4998 21.4446 11.3953 21.4446 12.4998C21.4446 13.6044 20.5491 14.4998 19.4446 14.4998H14.5003V19.4439C14.5003 20.5484 13.6049 21.4439 12.5003 21.4439C11.3957 21.4439 10.5003 20.5484 10.5003 19.4439V14.4998H5.55567C4.4511 14.4998 3.55567 13.6044 3.55567 12.4998Z" fill="#0C58A2"/>
</svg>
