<svg width="25" height="25" viewBox="0 0 25 25" fill="none" xmlns="http://www.w3.org/2000/svg">
<g clip-path="url(#clip0_335_888)">
<rect x="-15" y="15.7694" width="46" height="2.84615" fill="#B00036"/>
<rect x="-15" y="4.3846" width="46" height="2.84615" fill="#B00036"/>
<rect x="-15" y="21.4616" width="46" height="2.84615" fill="#B00036"/>
<rect x="-15" y="10.0768" width="46" height="2.84615" fill="#B00036"/>
<rect x="-15" y="-1.30757" width="46" height="2.84615" fill="#B00036"/>
<rect x="-15" y="24.3076" width="46" height="2.84615" fill="white"/>
<rect x="-15" y="12.9232" width="46" height="2.84615" fill="white"/>
<rect x="-15" y="1.53839" width="46" height="2.84615" fill="white"/>
<rect x="-15" y="18.6154" width="46" height="2.84615" fill="white"/>
<rect x="-15" y="7.23056" width="46" height="2.84615" fill="white"/>
<rect x="-15" y="-7" width="27.0533" height="19.3846" fill="#0A3161"/>
<path d="M-0.639863 1.88844L-0.426291 2.54575H0.264841L-0.294297 2.95199L-0.080725 3.60929L-0.639863 3.20306L-1.199 3.60929L-0.985429 2.95199L-1.54457 2.54575H-0.853435L-0.639863 1.88844Z" fill="#D9D9D9"/>
<path d="M3.54544 1.88844L3.75901 2.54575H4.45014L3.89101 2.95199L4.10458 3.60929L3.54544 3.20306L2.9863 3.60929L3.19987 2.95199L2.64074 2.54575H3.33187L3.54544 1.88844Z" fill="#D9D9D9"/>
<path d="M7.73105 1.88844L7.94462 2.54575H8.63575L8.07661 2.95199L8.29019 3.60929L7.73105 3.20306L7.17191 3.60929L7.38548 2.95199L6.82634 2.54575H7.51748L7.73105 1.88844Z" fill="#D9D9D9"/>
<path d="M-0.639863 5.69359L-0.426291 6.35089H0.264841L-0.294297 6.75713L-0.080725 7.41444L-0.639863 7.0082L-1.199 7.41444L-0.985429 6.75713L-1.54457 6.35089H-0.853435L-0.639863 5.69359Z" fill="#D9D9D9"/>
<path d="M3.54544 5.69359L3.75901 6.35089H4.45014L3.89101 6.75713L4.10458 7.41444L3.54544 7.0082L2.9863 7.41444L3.19987 6.75713L2.64074 6.35089H3.33187L3.54544 5.69359Z" fill="#D9D9D9"/>
<path d="M7.73105 5.69359L7.94462 6.35089H8.63575L8.07661 6.75713L8.29019 7.41444L7.73105 7.0082L7.17191 7.41444L7.38548 6.75713L6.82634 6.35089H7.51748L7.73105 5.69359Z" fill="#D9D9D9"/>
<path d="M-0.639863 9.49846L-0.426291 10.1558H0.264841L-0.294297 10.562L-0.080725 11.2193L-0.639863 10.8131L-1.199 11.2193L-0.985429 10.562L-1.54457 10.1558H-0.853435L-0.639863 9.49846Z" fill="#D9D9D9"/>
<path d="M3.54544 9.49846L3.75901 10.1558H4.45014L3.89101 10.562L4.10458 11.2193L3.54544 10.8131L2.9863 11.2193L3.19987 10.562L2.64074 10.1558H3.33187L3.54544 9.49846Z" fill="#D9D9D9"/>
<path d="M7.73105 9.49846L7.94462 10.1558H8.63575L8.07661 10.562L8.29019 11.2193L7.73105 10.8131L7.17191 11.2193L7.38548 10.562L6.82634 10.1558H7.51748L7.73105 9.49846Z" fill="#D9D9D9"/>
<path d="M1.45267 3.79076L1.66624 4.44806H2.35737L1.79823 4.8543L2.0118 5.51161L1.45267 5.10537L0.893528 5.51161L1.1071 4.8543L0.547962 4.44806H1.23909L1.45267 3.79076Z" fill="#D9D9D9"/>
<path d="M5.63852 3.79076L5.85209 4.44806H6.54322L5.98408 4.8543L6.19766 5.51161L5.63852 5.10537L5.07938 5.51161L5.29295 4.8543L4.73381 4.44806H5.42495L5.63852 3.79076Z" fill="#D9D9D9"/>
<path d="M9.82388 3.79076L10.0375 4.44806H10.7286L10.1694 4.8543L10.383 5.51161L9.82388 5.10537L9.26474 5.51161L9.47832 4.8543L8.91918 4.44806H9.61031L9.82388 3.79076Z" fill="#D9D9D9"/>
<path d="M1.45267 -0.0141449L1.66624 0.643161H2.35737L1.79823 1.0494L2.0118 1.7067L1.45267 1.30047L0.893528 1.7067L1.1071 1.0494L0.547962 0.643161H1.23909L1.45267 -0.0141449Z" fill="#D9D9D9"/>
<path d="M5.63852 -0.0141449L5.85209 0.643161H6.54322L5.98408 1.0494L6.19766 1.7067L5.63852 1.30047L5.07938 1.7067L5.29295 1.0494L4.73381 0.643161H5.42495L5.63852 -0.0141449Z" fill="#D9D9D9"/>
<path d="M9.82388 -0.0141449L10.0375 0.643161H10.7286L10.1694 1.0494L10.383 1.7067L9.82388 1.30047L9.26474 1.7067L9.47832 1.0494L8.91918 0.643161H9.61031L9.82388 -0.0141449Z" fill="#D9D9D9"/>
<path d="M1.45267 7.5959L1.66624 8.25321H2.35737L1.79823 8.65945L2.0118 9.31675L1.45267 8.91051L0.893528 9.31675L1.1071 8.65945L0.547962 8.25321H1.23909L1.45267 7.5959Z" fill="#D9D9D9"/>
<path d="M5.63852 7.5959L5.85209 8.25321H6.54322L5.98408 8.65945L6.19766 9.31675L5.63852 8.91051L5.07938 9.31675L5.29295 8.65945L4.73381 8.25321H5.42495L5.63852 7.5959Z" fill="#D9D9D9"/>
<path d="M9.82388 7.5959L10.0375 8.25321H10.7286L10.1694 8.65945L10.383 9.31675L9.82388 8.91051L9.26474 9.31675L9.47832 8.65945L8.91918 8.25321H9.61031L9.82388 7.5959Z" fill="#D9D9D9"/>
</g>
<defs>
<clipPath id="clip0_335_888">
<rect width="25" height="25" rx="12.5" fill="white"/>
</clipPath>
</defs>
</svg>
